<svg width="118" height="20" viewBox="0 0 118 20" fill="none" xmlns="http://www.w3.org/2000/svg">
<g clip-path="url(#clip0_27_2)">
<path d="M27.9727 3.12324C27.6435 1.89323 26.6768 0.926623 25.4468 0.597366C23.2197 1.78814e-07 14.285 0 14.285 0C14.285 0 5.35042 1.78814e-07 3.12323 0.597366C1.89323 0.926623 0.926623 1.89323 0.597366 3.12324C1.78814e-07 5.35042 0 10 0 10C0 10 1.78814e-07 14.6496 0.597366 16.8768C0.926623 18.1068 1.89323 19.0734 3.12323 19.4026C5.35042 20 14.285 20 14.285 20C14.285 20 23.2197 20 25.4468 19.4026C26.6768 19.0734 27.6435 18.1068 27.9727 16.8768C28.5701 14.6496 28.5701 10 28.5701 10C28.5701 10 28.5677 5.35042 27.9727 3.12324Z" fill="#FF0000"/>
<path d="M11 14.5H18V13.5H11V14.5ZM18 9H16V6H13V9H11L14.5 12.5L18 9Z" fill="white"/>
<path d="M34.8896 4.21718H37.5616L40.1344 9.07628H40.2446L42.8174 4.21718H45.4893L41.3739 11.5113V15.5H39.005V11.5113L34.8896 4.21718ZM47.0746 6.18396V4.21718H56.341V6.18396H52.8868V15.5H50.5288V6.18396H47.0746ZM57.8671 15.5V4.21718H62.3185C63.1743 4.21718 63.9033 4.38062 64.5057 4.7075C65.108 5.0307 65.5671 5.48062 65.883 6.05725C66.2025 6.6302 66.3623 7.29131 66.3623 8.04056C66.3623 8.78981 66.2007 9.45091 65.8775 10.0239C65.5542 10.5968 65.086 11.0431 64.4726 11.3626C63.8629 11.6821 63.1247 11.8419 62.2579 11.8419H59.4207V9.93021H61.8723C62.3314 9.93021 62.7097 9.85124 63.0072 9.69331C63.3083 9.53171 63.5324 9.30951 63.6793 9.0267C63.8299 8.74022 63.9052 8.41151 63.9052 8.04056C63.9052 7.66593 63.8299 7.33905 63.6793 7.05992C63.5324 6.77711 63.3083 6.55858 63.0072 6.40433C62.706 6.2464 62.324 6.16743 61.8613 6.16743H60.2526V15.5H57.8671ZM72.8521 8.92754V10.7896H67.7065V8.92754H72.8521ZM78.8957 15.5H74.896V4.21718H78.9287C80.0636 4.21718 81.0406 4.44305 81.8596 4.89481C82.6786 5.34289 83.3085 5.98746 83.7493 6.82853C84.1937 7.6696 84.4159 8.67595 84.4159 9.84757C84.4159 11.0229 84.1937 12.0329 83.7493 12.8776C83.3085 13.7224 82.675 14.3706 81.8486 14.8224C81.0259 15.2741 80.0416 15.5 78.8957 15.5ZM77.2815 13.4561H78.7965C79.5017 13.4561 80.0948 13.3312 80.576 13.0815C81.0608 12.828 81.4244 12.4369 81.6668 11.908C81.9129 11.3755 82.0359 10.6886 82.0359 9.84757C82.0359 9.01385 81.9129 8.33254 81.6668 7.80366C81.4244 7.27478 81.0626 6.88546 80.5815 6.63571C80.1003 6.38596 79.5072 6.26109 78.802 6.26109H77.2815V13.4561ZM89.9623 15.6653C89.1065 15.6653 88.3664 15.4835 87.742 15.1199C87.1213 14.7526 86.642 14.2421 86.3042 13.5883C85.9663 12.9309 85.7973 12.1688 85.7973 11.302C85.7973 10.4279 85.9663 9.66393 86.3042 9.01017C86.642 8.35274 87.1213 7.84223 87.742 7.47862C88.3664 7.11134 89.1065 6.9277 89.9623 6.9277C90.818 6.9277 91.5562 7.11134 92.1769 7.47862C92.8013 7.84223 93.2825 8.35274 93.6204 9.01017C93.9583 9.66393 94.1272 10.4279 94.1272 11.302C94.1272 12.1688 93.9583 12.9309 93.6204 13.5883C93.2825 14.2421 92.8013 14.7526 92.1769 15.1199C91.5562 15.4835 90.818 15.6653 89.9623 15.6653ZM89.9733 13.8472C90.3626 13.8472 90.6876 13.7371 90.9484 13.5167C91.2092 13.2927 91.4057 12.9878 91.5379 12.6022C91.6738 12.2165 91.7417 11.7776 91.7417 11.2855C91.7417 10.7933 91.6738 10.3544 91.5379 9.96877C91.4057 9.58313 91.2092 9.27829 90.9484 9.05425C90.6876 8.83021 90.3626 8.71819 89.9733 8.71819C89.5803 8.71819 89.2497 8.83021 88.9816 9.05425C88.7172 9.27829 88.517 9.58313 88.3811 9.96877C88.2489 10.3544 88.1828 10.7933 88.1828 11.2855C88.1828 11.7776 88.2489 12.2165 88.3811 12.6022C88.517 12.9878 88.7172 13.2927 88.9816 13.5167C89.2497 13.7371 89.5803 13.8472 89.9733 13.8472ZM97.1104 15.5L94.8076 7.03788H97.182L98.4932 12.7234H98.5704L99.9366 7.03788H102.267L103.655 12.6903H103.727L105.016 7.03788H107.385L105.088 15.5H102.603L101.149 10.1781H101.044L99.5896 15.5H97.1104ZM110.984 10.6078V15.5H108.637V7.03788H110.874V8.53087H110.973C111.16 8.03872 111.474 7.6494 111.915 7.36293C112.356 7.07278 112.89 6.9277 113.518 6.9277C114.106 6.9277 114.618 7.05625 115.055 7.31334C115.492 7.57044 115.832 7.93772 116.074 8.41518C116.317 8.88897 116.438 9.45458 116.438 10.112V15.5H114.091V10.5307C114.095 10.0128 113.963 9.60884 113.694 9.31869C113.426 9.02487 113.057 8.87795 112.587 8.87795C112.271 8.87795 111.992 8.9459 111.75 9.08179C111.511 9.21769 111.324 9.41602 111.188 9.67679C111.056 9.93388 110.988 10.2442 110.984 10.6078Z" fill="white"/>
</g>
<defs>
<clipPath id="clip0_27_2">
<rect width="117.57" height="20" fill="white"/>
</clipPath>
</defs>
</svg>
